<?xml version="1.0" standalone="no"?>
<!DOCTYPE svg PUBLIC "-//W3C//DTD SVG 20010904//EN"
 "http://www.w3.org/TR/2001/REC-SVG-20010904/DTD/svg10.dtd">
<svg version="1.0" xmlns="http://www.w3.org/2000/svg"
 width="512.000000pt" height="512.000000pt" viewBox="0 0 512.000000 512.000000"
 preserveAspectRatio="xMidYMid meet">
<metadata>
Created by potrace 1.11, written by Peter Selinger 2001-2013
</metadata>
<g transform="translate(0.000000,512.000000) scale(0.100000,-0.100000)"
fill="#000000" stroke="none">
<path d="M0 2560 l0 -2560 2560 0 2560 0 0 2560 0 2560 -2560 0 -2560 0 0
-2560z m2009 1357 c359 -655 700 -1112 1031 -1380 256 -206 595 -370 858 -413
76 -12 135 -15 272 -10 96 4 198 9 225 12 l50 5 -112 -73 c-283 -188 -437
-359 -581 -647 -90 -181 -139 -241 -239 -294 -95 -49 -169 -67 -308 -74 -148
-7 -281 12 -473 68 -631 185 -1313 629 -1838 1197 -139 150 -393 451 -408 483
-12 25 14 81 86 189 182 272 528 591 943 870 107 72 383 240 394 240 3 0 48
-78 100 -173z m1533 -211 c322 -62 691 -295 893 -565 76 -101 157 -261 179
-352 53 -220 -39 -458 -213 -553 -114 -62 -335 -87 -501 -56 -332 61 -712 288
-926 554 -173 215 -256 424 -238 601 7 70 22 70 23 -1 2 -53 40 -186 76 -262
62 -132 150 -246 285 -368 l65 -59 -59 65 c-132 147 -231 320 -262 456 -25
115 -17 231 23 316 53 112 154 192 286 224 71 17 279 17 369 0z"/>
<path d="M1823 3809 c-43 -13 -67 -50 -60 -93 6 -39 51 -114 73 -123 21 -8
104 38 116 63 9 18 2 34 -36 93 -25 39 -49 71 -53 70 -5 0 -23 -5 -40 -10z"/>
<path d="M1986 3456 l-48 -45 23 -40 c12 -22 35 -52 50 -67 l28 -26 33 20 c52
32 81 67 74 90 -8 24 -88 112 -102 112 -5 0 -31 -20 -58 -44z"/>
<path d="M2182 3169 l-53 -41 18 -27 c59 -88 69 -100 76 -98 17 5 106 82 106
92 0 6 -21 34 -47 63 l-47 52 -53 -41z"/>
<path d="M2363 2936 c-35 -32 -36 -34 -21 -57 24 -38 69 -79 85 -79 21 0 104
62 100 74 -5 14 -105 96 -118 96 -5 0 -26 -15 -46 -34z"/>
<path d="M770 2793 c-43 -36 -53 -66 -36 -106 16 -37 62 -86 100 -107 25 -13
28 -12 67 26 70 67 70 68 -7 145 -38 38 -74 69 -80 69 -7 0 -27 -12 -44 -27z"/>
<path d="M2565 2698 l-36 -33 40 -42 c21 -24 47 -43 58 -43 25 0 105 59 100
74 -6 19 -87 76 -108 76 -11 0 -35 -15 -54 -32z"/>
<path d="M2815 2521 c-16 -10 -38 -27 -48 -38 -17 -20 -17 -21 18 -52 20 -17
46 -31 59 -31 21 0 113 57 104 65 -26 24 -91 75 -96 75 -4 0 -20 -8 -37 -19z"/>
<path d="M1048 2474 c-21 -25 -38 -54 -38 -65 0 -11 23 -45 51 -75 62 -65 93
-71 132 -24 35 41 41 64 23 98 -18 34 -101 112 -118 111 -7 0 -30 -21 -50 -45z"/>
<path d="M3022 2328 l-42 -32 27 -28 c35 -37 69 -36 121 3 23 17 42 32 42 34
0 7 -81 55 -93 55 -7 0 -32 -14 -55 -32z"/>
<path d="M1324 2216 c-38 -38 -43 -70 -19 -115 15 -31 90 -91 112 -91 17 0 61
68 69 106 5 28 0 37 -48 83 -29 28 -59 51 -66 51 -8 0 -29 -15 -48 -34z"/>
<path d="M3237 2202 c-44 -45 -45 -56 -12 -78 35 -23 69 -11 100 34 l26 37
-28 22 c-15 13 -33 23 -38 23 -6 0 -28 -17 -48 -38z"/>
<path d="M3425 2109 c-52 -46 -44 -69 25 -69 20 0 40 11 64 36 33 34 35 38 18
50 -29 23 -69 16 -107 -17z"/>
<path d="M3619 2070 c-9 -5 -24 -21 -34 -36 -20 -31 -9 -44 39 -44 36 0 106
68 84 81 -17 12 -69 11 -89 -1z"/>
<path d="M3771 2019 c-35 -35 -38 -44 -15 -53 25 -10 55 3 91 37 38 35 35 47
-12 47 -24 0 -42 -9 -64 -31z"/>
<path d="M4135 2032 c-34 -21 -60 -50 -52 -58 11 -11 84 17 117 45 l35 30 -35
1 c-19 0 -48 -8 -65 -18z"/>
<path d="M3960 2033 c-19 -7 -70 -54 -70 -65 0 -17 69 -7 101 15 45 30 51 57
12 56 -15 0 -35 -3 -43 -6z"/>
<path d="M1582 1965 c-33 -69 -29 -87 30 -139 29 -25 57 -46 63 -46 15 0 75
101 75 126 0 21 -49 73 -87 93 -40 21 -58 13 -81 -34z"/>
<path d="M1874 1753 c-32 -74 -13 -137 51 -167 18 -9 37 -16 42 -16 13 0 63
96 63 122 0 31 -16 51 -60 77 -53 32 -77 28 -96 -16z"/>
<path d="M2172 1565 c-34 -70 -30 -88 29 -135 28 -22 55 -37 60 -34 17 10 59
103 59 129 0 18 -12 33 -42 55 -58 43 -79 40 -106 -15z"/>
<path d="M2497 1447 c-60 -50 -64 -133 -6 -162 57 -30 74 -20 104 65 13 35 12
41 -6 63 -25 32 -72 50 -92 34z"/>
<path d="M3652 1405 c-33 -36 -55 -96 -45 -121 13 -35 93 77 93 131 0 34 -12
32 -48 -10z"/>
<path d="M2730 1308 c-36 -80 -18 -132 44 -126 26 2 35 11 54 50 34 67 12 118
-49 118 -26 0 -33 -6 -49 -42z"/>
<path d="M3510 1337 c-30 -15 -51 -56 -58 -114 -5 -45 3 -52 38 -33 24 13 52
88 48 128 -3 30 -4 31 -28 19z"/>
<path d="M2964 1263 c-37 -87 -27 -133 26 -133 34 0 46 13 61 72 11 40 10 49
-4 72 -27 40 -64 35 -83 -11z"/>
<path d="M3360 1287 c-28 -14 -64 -99 -55 -128 8 -23 38 -25 59 -4 15 16 36
76 36 105 0 31 -14 40 -40 27z"/>
<path d="M3188 1269 c-31 -18 -63 -104 -51 -135 8 -22 60 -17 77 8 20 28 30
81 22 113 -7 27 -20 31 -48 14z"/>
<path d="M3416 3589 c-50 -40 -29 -126 50 -199 56 -52 122 -80 184 -80 163 0
123 195 -57 280 -58 27 -141 27 -177 -1z"/>
<path d="M3006 3399 c-37 -29 -36 -89 3 -151 52 -82 133 -128 225 -128 108 0
140 70 77 169 -70 108 -232 167 -305 110z"/>
<path d="M3975 3285 c-48 -47 -26 -126 56 -199 137 -123 328 -91 275 47 -24
64 -70 112 -138 146 -81 41 -157 43 -193 6z"/>
<path d="M3656 3124 c-62 -61 63 -205 180 -208 50 -1 74 17 74 56 0 25 -3 29
-17 23 -49 -18 -73 -17 -115 8 -52 30 -73 65 -65 106 6 28 4 31 -18 31 -13 0
-31 -7 -39 -16z"/>
<path d="M3185 2915 c-44 -43 -30 -107 42 -186 46 -51 101 -79 168 -86 76 -8
103 1 122 42 22 46 7 96 -47 158 -80 91 -229 129 -285 72z"/>
<path d="M4155 2805 c-31 -30 -32 -65 -3 -123 46 -90 147 -152 250 -152 122 0
131 122 18 224 -59 53 -114 76 -183 76 -48 0 -62 -4 -82 -25z"/>
<path d="M3763 2628 c-88 -43 -21 -198 113 -264 95 -46 194 -31 210 32 32 125
-200 292 -323 232z"/>
</g>
</svg>
