<svg xmlns="http://www.w3.org/2000/svg" viewBox="0 0 428.1 334.6"><path d="M229.3 89.3c.8 34.5 21.1 56.9 45.9 76.6-4.3-4.3-8.8-8.4-12.8-12.9-11.3-12.7-20.3-26.7-23.3-43.9-4.3-24.3 8.9-42.9 33.2-46.7 21.4-3.4 41.3 1.9 60.4 11.1 26.7 12.9 48.7 31.3 62.6 58 7.3 14.1 10.6 28.8 5 44.7-6 17.3-18.8 25.6-35.9 28.2-21.5 3.3-41.7-2.1-60.9-11.1-28.9-13.5-52.6-33.2-67.7-61.8-6.1-11.5-9.5-23.8-7.5-37 .2-1.7.6-3.4 1-5.2zm137.9 54.1c-8.9-.1-12.9 6-8.7 13.9 4.7 8.9 12.4 13.8 22.3 14.9 8.1.9 12.5-5.3 9.5-12.9-3.3-8.3-14.1-15.8-23.1-15.9zm-69.1-72.1c-8.5-.1-12.2 5.3-8.9 13.1 3.6 8.4 14.8 15.8 23.8 15.7 7.5-.1 11.2-5.6 8.5-12.6-3.2-8.6-14.1-16.1-23.4-16.2zm-20.6 62c-9-.2-13.1 5.7-9 13.7 4.8 9.2 12.8 14.4 23.1 15 7.7.5 11.6-5.4 8.8-12.6-3.1-8.3-13.8-15.8-22.9-16.1zm51.1 27.9c-8 .1-11.5 5.1-8.7 12.6 3.3 8.7 15.3 16.6 24.5 16.1 7.3-.4 10.6-5.5 8-12.4-3.4-8.9-14.4-16.4-23.8-16.3zm21.1-62.1c-7.7 0-11.5 5.1-9.1 12.1 3.1 9.1 15.6 17.2 25.2 16.5 6.9-.5 10-5.2 7.8-11.8-3-8.7-14.4-16.8-23.9-16.8zm-77.5 18.6c10.4.3 14.7-5.5 10.9-13.1-4.7-9.5-12.8-14.8-23.4-15.5-7.9-.5-12 5.8-8.6 13 4.5 9.5 12.5 14.3 21.1 15.6zm47.3-2.9c-6.3-.3-9.3 2.7-8.1 7.9 1.7 7 12.4 14.5 19.5 13.7 5.3-.6 7.3-4.1 5.1-8.8-4.2 3.3-9 3-13.8-.9-4.5-3.6-5.2-6.8-2.7-11.9z"/><path d="M382.2 208.8c-20.1 3-40.3 3.5-59.9-2.3-35.3-10.4-64.9-30.6-89.8-57.4-25-27-44.8-57.9-63.1-89.7-6.1-10.5-11.7-21.2-17.6-31.9-.6.2-1.1.4-1.5.6-33.4 19-64.9 40.7-92.7 67.4-14.6 14-27.8 29.2-37.3 47.3-1 1.9-1.8 3.4 0 5.7 24.7 31.3 51.3 60.9 82.5 86 35.7 28.7 74.2 52.3 118.1 66.3 19.4 6.2 39.2 10.8 59.9 7.6 17-2.6 31-10.6 37.8-26.7 11.6-27.1 29.3-48.5 53.9-64.4 4.3-2.8 8.6-5.5 13.8-8.9-2.2.2-3.2.3-4.1.4zm-144-37.8c2.8-.1 5.8 3.9 9.9 7.1-4.4 2.8-7.7 6.5-10.5 6.1-3.1-.4-5.7-4.4-8.6-6.9 3.1-2.2 6.1-6.2 9.2-6.3zm-183.3-2.8c-.9.7-4.4-2.1-6.7-3.4-.7-.4-1.1-1.2-1.7-1.8-6.9-7.7-6.5-11.7 1.9-17.7.8-.6 2.7-1 3.1-.6 4.1 4.1 8 8.4 12.7 13.3-3.6 4.2-6 7.8-9.3 10.2zm27.6 26.5c-.9.7-3.4.8-4.3.1-3.1-2.5-6-5.2-8.6-8.2-2-2.4-2-5.1.3-7.6 2.1-2.2 4-4.6 6-7 1.6.8 2.5 1.1 3.3 1.7 1.4 1.1 2.7 2.4 4 3.7 7.2 6.9 7.1 11.2-.7 17.3zm28.6 19.3c-4.8 7.8-5 7.7-12.4 1.4-6.7-5.7-6.2-12.9 1.3-17.4.4-.2.9-.4 2.2-.9 3.2 2.9 7.2 5.7 10 9.4 1.1 1.5.1 5.5-1.1 7.5zm24 20.3c-1.4 2.3-2.8 4.5-4.8 7.7-4.3-3.6-8.4-6-11.1-9.6-1.1-1.5.1-5.5 1.4-7.8 1.5-2.7 2.5-7.7 7.8-4.2 9 5.7 10.2 8 6.7 13.9zm4.1-167.8c-4.1-7.1-1-13 7.2-13.8.7-.1 1.9.2 2.2.7 2.7 4.1 5.3 8.3 8.2 12.8-1.1 1.4-1.7 2.7-2.6 3.3-9.8 5.5-9 7.4-15-3zm22.4 187c-1.3 2.5-2.9 4.9-4 6.8-8.2.1-13.8-8.9-10.3-14.9 1.5-2.4 1.4-7.8 6.9-5.1 8.9 4.5 10.4 7.2 7.4 13.2zm-6.9-163.4c2-3.4 5.9-5.6 9-8.3 2.9.6 11.6 11.1 10.1 13-2.4 3.2-6.2 5.5-9.9 7.4-1.7 1-10.6-9.8-9.2-12.1zm27.1 18.5c3.1 3.7 6.2 7.4 9.3 11-3.3 2.8-6.5 5.6-10.9 9.4-3.3-4.8-6-8.8-8.7-12.7 3.5-2.6 6.9-5.2 10.3-7.7zm7.2 159.1c-1 1.9-1.6 4-2.7 5.9-.5 1-1.5 1.8-3.2 3.6-3.7-3.2-8.8-5.5-9.7-9-.9-3.2 2.5-7.7 4.3-11.4.2-.5 2.5-.4 3.6.1 1.8.7 3.5 1.9 5.2 2.9 3.1 1.8 4.4 4.3 2.5 7.9zm9.7-120.7c-3.7-1.6-6.1-6.2-9.1-9.6 2.9-2.2 6.6-6.8 8.6-6.2 3.8 1.2 6.8 5.4 11.4 9.4-4.7 3-8.9 7.2-10.9 6.4zm12.8 141c-.8 1-5.6-.3-7.8-1.7-1.6-1-2.6-3.8-2.7-5.9-.1-2 1.1-4.2 2.2-5.9 1-1.5 3.2-3.9 4.2-3.6 3.4 1.1 7.7 1.7 8.7 6.8-1.3 3.2-2.2 7.3-4.6 10.3zm6.2-120.5c-3.4-.8-6-5.3-8.9-8.2 2.8-2.3 5.8-6.7 8.4-6.4 3.5.4 6.6 4.3 11.3 7.7-4.7 3.2-8.3 7.5-10.8 6.9zm18.4 126.1c-.8 1.5-2.9 3.6-4.2 3.4-3-.5-6.9-1-6.8-6.4.9-2.5 1.6-6.1 3.5-8.9.8-1.2 4.5-1.2 6.4-.5 1.6.7 3.3 3.2 3.4 4.9 0 2.5-1.1 5.2-2.3 7.5zm19.7 5.1c-.6 1.4-2.1 2.4-2.6 2.9-5.7 0-7.5-2.4-6.3-6.8.6-2.1 1.4-4.1 1.9-6.2 1-4 4.1-3.9 6.6-2.8 1.4.7 2.7 3.5 2.6 5.3-.1 2.5-1.1 5.2-2.2 7.6zm-5.5-105c2.9-2.3 5.5-5.8 8.7-6.5 2.2-.5 5.3 2.8 9.5 5.3-4.4 3-7.3 6.4-10.5 6.6-2.4.2-5.1-3.5-7.7-5.4zm24.7 98.1c-.3 2.7-1.2 5.5-2.4 8-.6 1.4-2.2 2.3-2.6 2.7-4.7.3-6.1-1.4-5.3-4.5.7-2.9 1.2-6 2.8-8.4 1-1.6 3.9-1.9 5.9-2.8.6 1.7 1.8 3.4 1.6 5zm-3.3-83.5c-.8-.7-1.7-2.4-1.5-2.7 2.5-2.7 5.2-5.1 8.1-7.8 2.7 1.8 4.8 3.1 6.8 4.5-1.1 1.6-2.1 3.4-3.3 4.9-3 3.8-6.4 4.4-10.1 1.1zm17.7 81.7c-.5 2.9-1.2 5.9-2.6 8.4-.7 1.3-3.1 2-4.8 2.4-.5.1-1.5-2-2.2-3 1.3-3.8 2.1-7.2 3.7-10.2.7-1.3 3.3-1.5 5-2.2.3 1.5 1.1 3.1.9 4.6zm8.6 5.7c-1.1.7-2.7.6-4.1.8-.2-1.3-.8-2.7-.4-3.7 3.1-9.4 2.5-11.2 8.9-11.8 1.1 3.7-1.5 13-4.4 14.7zm-7.4-78.9c-3.2-1.3-3.2-2.8-.8-5 5.9-5.5 7.8-5.8 13.4-1.7-5 6.9-8.2 8.5-12.6 6.7zm18.1 71.6c-2.3-4.8 2.2-13.6 8.3-16.5 1.5 4.9-2.8 13.5-8.3 16.5zm-3.8-68c2.3-6.6 7.9-9.1 14.2-6-5.2 7.7-8.6 9.1-14.2 6zm15.1 2.7c4.8-7.3 9.1-9.1 13.8-6-5.3 7-8.5 8.4-13.8 6zm14.3.9c3.7-6.2 8.7-8.5 14.3-6.5-3.6 6.2-8.6 8.5-14.3 6.5zm17.4-.8c2.6-5.4 8.4-8.3 15.6-7.1-5.2 3.9-9.2 8-15.6 7.1z"/></svg>
